<svg width="128" height="126" viewBox="0 0 128 126" fill="none" xmlns="http://www.w3.org/2000/svg">
<g clip-path="url(#clip0_1_47)">
<rect width="128" height="126" rx="20" fill="#17B8CA"/>
<path d="M0 97H128V106C128 117.046 119.046 126 108 126H20C8.95431 126 0 117.046 0 106V97Z" fill="#99167F"/>
<path fill-rule="evenodd" clip-rule="evenodd" d="M71.9446 62.9334C70.0817 62.9334 68.1828 62.869 66.2479 62.7404C59.5324 62.285 53.2723 60.7105 47.6452 58.0478C42.898 55.8018 38.5522 52.7685 34.7391 49.033C28.3864 42.8199 24.743 35.9353 22.7978 31.2581C22.5199 30.5943 22.2626 29.9203 22.0259 29.2359C16.6381 29.151 10.8488 28.603 4.6891 27.5997C2.68216 27.2678 1.32362 25.3846 1.64782 23.3778C1.97974 21.3788 3.86316 20.0204 5.8701 20.3446C10.9801 21.1782 15.7967 21.6798 20.2814 21.8419C19.8955 18.9553 19.8106 15.9761 20.0421 12.9661C20.5207 6.63717 22.3347 0.763661 25.291 -4.00616C27.2131 -7.10885 29.5442 -9.61725 32.215 -11.4542C35.1636 -13.4763 38.4365 -14.6263 41.9409 -14.8656C46.3947 -15.1743 50.4472 -14.4257 53.9902 -12.6582C57.3557 -10.9834 60.0728 -8.42865 61.8558 -5.27192C63.5695 -2.26185 64.3568 1.18816 64.1407 4.69992C63.9168 8.28886 62.6355 11.8624 60.4356 15.0191C56.4912 20.6842 49.7988 24.8906 41.0918 27.1829C37.6183 28.0936 33.8591 28.7034 29.8298 29.0121C33.2262 36.8692 43.2377 53.8259 66.7342 55.4004C82.3729 56.4501 95.1401 52.7917 103.654 44.8343C110.725 38.2198 114.785 28.6185 114.785 18.5077C114.785 16.4778 116.429 14.8339 118.459 14.8339C120.489 14.8339 122.133 16.4778 122.133 18.5077C122.133 24.1651 121.03 29.9074 118.945 35.1171C116.614 40.9289 113.164 45.9997 108.671 50.1984C103.878 54.6827 98.0115 58.0401 91.2497 60.178C85.445 62.0072 78.9688 62.9334 71.9446 62.9334ZM43.7857 -7.57965C43.3432 -7.57965 42.8955 -7.56422 42.4426 -7.53335C36.9853 -7.16287 33.504 -3.3038 31.5434 -0.139355C27.8074 5.89624 26.4643 14.201 27.7071 21.7879C31.8908 21.5641 35.7348 20.9929 39.2161 20.0745C48.062 17.7436 52.3538 13.7533 54.3993 10.8204C57.209 6.79154 57.6027 2.12977 55.4645 -1.65212C53.3341 -5.41858 49.0269 -7.57965 43.7857 -7.57965Z" fill="#99167F"/>
<path fill-rule="evenodd" clip-rule="evenodd" d="M90.1692 7.00002C90.2691 8.52707 90.369 10.0541 90.4688 11.5812C90.0978 11.6027 89.9123 11.6171 89.5412 11.6602C89.527 11.5022 89.5198 11.4304 89.4984 11.2724C89.2844 11.5884 88.9561 11.7679 88.4995 11.8325C88.1855 11.8756 87.8929 11.854 87.6147 11.7607C87.334 11.6697 87.0938 11.5118 86.894 11.2868C86.6942 11.0642 86.5586 10.7841 86.4944 10.4467C86.423 10.1092 86.4373 9.80042 86.5443 9.51319C86.6537 9.22597 86.8393 8.98902 87.1009 8.80232C87.3578 8.61563 87.6718 8.49356 88.0214 8.4433C88.5066 8.37149 88.899 8.46484 89.1916 8.70179C89.1274 8.06273 89.0917 7.7396 89.0275 7.10054C89.4842 7.05027 89.7125 7.02874 90.1692 7.00002ZM89.1631 10.698C89.3129 10.5185 89.3771 10.2815 89.3486 10.0086C89.32 9.7286 89.2059 9.51319 89.0132 9.36958C88.8206 9.21879 88.5851 9.16135 88.3211 9.19725C88.0428 9.24033 87.8359 9.35522 87.686 9.5491C87.5362 9.74297 87.4862 9.97274 87.529 10.2528C87.579 10.5256 87.7003 10.7339 87.8929 10.8703C88.0856 11.0067 88.3068 11.0642 88.5637 11.0283C88.8134 10.9924 89.0132 10.8847 89.1631 10.698Z" fill="white"/>
<path fill-rule="evenodd" clip-rule="evenodd" d="M94.7572 10.2456C93.8795 10.1595 92.9733 10.1236 92.0885 10.1308C92.1409 10.3366 92.255 10.4994 92.431 10.619C92.607 10.7387 92.8235 10.8033 93.0804 10.8129C93.2611 10.8177 93.4229 10.7985 93.5656 10.7555C93.7035 10.7076 93.8367 10.6334 93.9652 10.5329C94.165 10.7626 94.2649 10.8847 94.4575 11.1217C94.1079 11.452 93.6369 11.6028 93.0304 11.5812C92.6522 11.574 92.324 11.4951 92.0315 11.3514C91.7318 11.2078 91.5034 11.014 91.3322 10.7555C91.1609 10.5041 91.061 10.2097 91.0468 9.87944C91.0396 9.55632 91.1038 9.26192 91.268 8.98906C91.4321 8.72338 91.6675 8.51515 91.9672 8.36436C92.2741 8.21356 92.6166 8.14176 92.9947 8.15612C93.3658 8.1633 93.694 8.24947 93.9866 8.40744C94.272 8.56541 94.4932 8.78082 94.6359 9.05368C94.7786 9.33372 94.8357 9.64249 94.8 9.98715C94.8 10.0015 94.7858 10.0877 94.7572 10.2456ZM92.374 9.06086C92.2075 9.18532 92.1076 9.35526 92.0743 9.57068C92.7878 9.5635 93.1375 9.57068 93.851 9.61376C93.8272 9.40313 93.7368 9.2308 93.5799 9.09676C93.4181 8.96273 93.2183 8.89092 92.9805 8.88135C92.7379 8.87656 92.5357 8.9364 92.374 9.06086Z" fill="white"/>
<path d="M97.4686 11.8756C97.3592 11.9283 97.2332 11.957 97.0905 11.9618C96.9477 11.9714 96.8003 11.9642 96.6481 11.9402C96.2556 11.8756 95.963 11.732 95.7704 11.5022C95.5777 11.2725 95.5064 10.9637 95.5492 10.5759C95.6134 10.0302 95.6491 9.76455 95.7133 9.21883C95.485 9.19011 95.3779 9.18293 95.1496 9.15421C95.1781 8.85981 95.1924 8.71619 95.221 8.42179C95.4564 8.44334 95.5706 8.4577 95.7989 8.47924C95.8346 8.1633 95.856 7.99814 95.8917 7.67502C96.3412 7.73246 96.5624 7.76119 97.0048 7.83299C96.9549 8.15612 96.9263 8.31409 96.8764 8.63003C97.2474 8.69465 97.433 8.72338 97.804 8.79519C97.7469 9.08241 97.7184 9.2332 97.6613 9.52042C97.3045 9.45579 97.1261 9.41988 96.7622 9.36244C96.6837 9.90098 96.6409 10.1667 96.5553 10.7052C96.5363 10.844 96.5577 10.9565 96.6195 11.0427C96.6814 11.1288 96.7789 11.1839 96.9121 11.2078C97.069 11.2366 97.2094 11.2198 97.3331 11.1576C97.3902 11.4448 97.4116 11.5884 97.4686 11.8756Z" fill="white"/>
<path d="M98.8671 8.30688C98.7624 8.17763 98.7267 8.03881 98.76 7.89041C98.7933 7.74201 98.8837 7.63191 99.0312 7.56011C99.1834 7.4883 99.3618 7.47634 99.5663 7.52421C99.7756 7.57208 99.9302 7.66064 100.03 7.78989C100.135 7.91914 100.168 8.05557 100.13 8.19918C100.092 8.35715 99.9968 8.46964 99.8446 8.53666C99.6924 8.60846 99.5188 8.62043 99.3237 8.57256C99.1239 8.52469 98.9717 8.43613 98.8671 8.30688ZM98.6815 8.89568C99.1097 8.99621 99.3237 9.04648 99.7447 9.15419C99.4688 10.2265 99.1929 11.3012 98.917 12.3782C98.5388 12.2777 98.3533 12.2346 97.9751 12.1485C98.2082 11.0666 98.4437 9.98233 98.6815 8.89568Z" fill="white"/>
<path d="M101.6 11.8397C101.357 11.9402 101.236 11.9977 100.993 12.1126C100.886 12.4285 100.829 12.5937 100.722 12.9096C100.351 12.7875 100.166 12.7301 99.7947 12.6152C100.223 11.1504 100.651 9.68315 101.079 8.21354C101.521 8.34997 101.735 8.4146 102.171 8.56539C101.9 9.38396 101.626 10.2025 101.35 11.0211C102.107 10.7124 102.492 10.5688 103.284 10.3103C103.776 10.5041 104.019 10.6118 104.497 10.8272C103.691 11.0786 103.298 11.2222 102.528 11.5309C102.813 12.3064 103.063 13.1107 103.262 13.9149C102.827 13.721 102.613 13.6205 102.171 13.4481C101.964 12.8019 101.85 12.4788 101.6 11.8397Z" fill="white"/>
<path fill-rule="evenodd" clip-rule="evenodd" d="M85.1099 18.2878C85.1099 18.2735 85.1099 18.2615 85.1099 18.2519C84.8673 15.5736 86.9794 13.1825 90.0905 13.0891C93.1801 12.9958 95.4064 15.2146 95.3279 17.9073C95.3279 17.9168 95.3279 17.9288 95.3279 17.9432C95.2494 20.6358 93.123 22.7613 90.3473 22.8403C87.5859 22.9264 85.3525 20.9733 85.1099 18.2878ZM92.6806 17.9575C92.6806 17.9432 92.6806 17.9312 92.6806 17.9216C92.6806 16.543 91.646 15.3295 90.119 15.3797C88.5421 15.43 87.6644 16.6578 87.75 18.0365C87.75 18.0461 87.75 18.058 87.75 18.0724C87.8285 19.4511 88.8703 20.5928 90.3117 20.5497C91.7958 20.5066 92.6878 19.3362 92.6806 17.9575Z" fill="white"/>
<path d="M96.5908 15.0997C96.7192 14.3816 97.4399 13.9077 98.2034 14.0585C98.9669 14.2093 99.4592 14.9202 99.3094 15.6382C99.2809 15.777 99.2523 15.9135 99.2238 16.0475C99.8018 15.2433 100.629 14.5611 101.443 14.7478C102.292 14.9417 102.649 15.5879 102.47 16.3204C102.306 17.0025 101.75 17.2969 101.179 17.2897C99.7518 17.2825 98.7814 18.137 98.4032 19.9896C98.2319 20.7986 98.0631 21.6076 97.8966 22.4166C97.7467 23.1347 97.0617 23.6014 96.3696 23.465C95.6774 23.3285 95.2279 22.6392 95.3563 21.914C95.7654 19.6449 96.1769 17.3735 96.5908 15.0997Z" fill="white"/>
<path fill-rule="evenodd" clip-rule="evenodd" d="M104.369 25.7915C101.821 24.9226 100.437 22.4812 101.2 19.7167C101.205 19.7072 101.21 19.6952 101.215 19.6808C101.921 17.1102 104.468 15.5305 107.23 16.464C110.391 17.5482 110.812 20.521 110.105 22.3161C109.827 23.0341 109.135 23.307 108.479 23.0557C106.828 22.4334 105.165 21.8565 103.491 21.3252C103.384 22.553 103.976 23.4075 105.082 23.7809C105.767 24.0179 106.409 24.0035 107.052 23.8096C107.273 23.745 107.465 23.7378 107.722 23.8384C108.279 24.0466 108.521 24.6282 108.314 25.1811C108.186 25.5042 107.951 25.6981 107.715 25.7915C106.716 26.1648 105.61 26.2223 104.369 25.7915ZM107.822 21.0451C108.072 19.8675 107.658 18.8623 106.552 18.4889C105.467 18.1155 104.518 18.6397 103.955 19.7311C105.253 20.1428 106.543 20.5808 107.822 21.0451Z" fill="white"/>
<path d="M73.1726 23.5152C73.5294 24.3841 73.9647 25.1524 74.4784 25.8273C74.5212 25.8776 74.5569 25.9279 74.5854 25.9853C74.6497 26.1002 74.7353 26.2151 74.8566 26.3372C74.9517 26.4281 75.0469 26.5167 75.142 26.6028C75.1658 26.6268 75.1896 26.6507 75.2134 26.6747C75.2276 26.689 75.2443 26.7058 75.2633 26.7249C75.3632 26.8254 75.4631 26.9044 75.5559 26.9619C75.5892 26.9858 75.6248 27.0097 75.6629 27.0337C76.7974 27.8953 78.0818 28.3333 79.4804 28.3333C80.0013 28.3333 80.5364 28.2687 81.0573 28.1467C83.3264 27.6297 85.4028 25.9925 85.6026 23.386C85.8738 19.767 83.3335 18.4458 81.0859 17.2754C79.252 16.3132 77.6608 15.4874 77.8249 13.6205C77.8892 12.8234 78.3458 12.3208 78.724 12.0479C79.3662 11.5597 80.2653 11.3658 81.0645 11.5381C81.6924 11.6674 81.9778 12.0479 82.2846 12.5578C82.4131 12.7732 82.67 13.1537 82.7913 13.3404C83.0695 13.7425 83.1195 13.8718 83.5048 13.9364C83.5286 13.9412 83.5524 13.946 83.5762 13.9508C83.9115 13.9867 84.2469 13.8933 84.5323 13.6995L84.5823 13.6564C85.096 13.2686 85.5099 12.7875 85.0033 11.8325C84.2398 10.4036 83.4477 9.40551 81.8422 8.85979C80.3652 8.34998 78.6241 8.61566 77.1828 9.55631C75.827 10.4467 74.9779 11.7966 74.8423 13.2686C74.5355 16.7799 77.0615 18.1442 79.2949 19.3505C81.1501 20.3486 83.1409 21.5047 82.8983 23.3501C82.7128 24.7646 81.8636 25.4324 80.1939 25.7053C79.0808 25.8776 78.196 25.5545 77.4254 25.0159C77.2042 24.858 77.0686 24.6138 76.9544 24.4918C76.9116 24.4415 76.8688 24.3984 76.8331 24.3482C76.4193 23.7306 76.0696 23.1059 75.7771 22.4166C75.4916 21.7632 74.7781 21.4113 74.1002 21.6052C73.2868 21.835 72.8515 22.7254 73.1726 23.5152Z" fill="white"/>
<path d="M91.311 15.4659C89.9482 14.8627 88.3355 15.4874 87.729 16.8589C87.1296 18.2375 87.7504 19.8532 89.1133 20.4635C90.4833 21.0667 92.0888 20.442 92.6953 19.0705C93.3019 17.6918 92.6739 16.0762 91.311 15.4659Z" fill="#FF4E00"/>
<path d="M31.8765 119.103C31.4702 119.103 31.0953 119.029 30.752 118.88C30.4143 118.725 30.1367 118.508 29.9192 118.227L30.6919 117.3C30.8578 117.518 31.0324 117.684 31.2155 117.798C31.3987 117.907 31.5961 117.961 31.8079 117.961C32.3745 117.961 32.6577 117.629 32.6577 116.965V114.107H30.5459V112.991H34.0399V116.888C34.0399 117.632 33.8567 118.187 33.4905 118.554C33.1242 118.92 32.5862 119.103 31.8765 119.103ZM38.3323 119.103C37.8573 119.103 37.4166 119.026 37.0103 118.871C36.6097 118.717 36.2606 118.499 35.963 118.219C35.6711 117.938 35.4422 117.609 35.2762 117.232C35.116 116.854 35.0358 116.442 35.0358 115.995C35.0358 115.549 35.116 115.137 35.2762 114.759C35.4422 114.381 35.674 114.052 35.9716 113.772C36.2692 113.492 36.6183 113.274 37.0189 113.12C37.4195 112.965 37.8545 112.888 38.3238 112.888C38.7988 112.888 39.2337 112.965 39.6286 113.12C40.0292 113.274 40.3755 113.492 40.6674 113.772C40.965 114.052 41.1967 114.381 41.3627 114.759C41.5287 115.131 41.6117 115.543 41.6117 115.995C41.6117 116.442 41.5287 116.857 41.3627 117.24C41.1967 117.618 40.965 117.947 40.6674 118.227C40.3755 118.502 40.0292 118.717 39.6286 118.871C39.2337 119.026 38.8016 119.103 38.3323 119.103ZM38.3238 117.918C38.5927 117.918 38.8388 117.873 39.062 117.781C39.291 117.689 39.4913 117.558 39.663 117.386C39.8347 117.214 39.9663 117.011 40.0579 116.777C40.1551 116.542 40.2038 116.282 40.2038 115.995C40.2038 115.709 40.1551 115.449 40.0579 115.214C39.9663 114.98 39.8347 114.776 39.663 114.605C39.497 114.433 39.2995 114.301 39.0706 114.21C38.8417 114.118 38.5927 114.072 38.3238 114.072C38.0548 114.072 37.8058 114.118 37.5769 114.21C37.3537 114.301 37.1562 114.433 36.9845 114.605C36.8129 114.776 36.6784 114.98 36.5811 115.214C36.4895 115.449 36.4437 115.709 36.4437 115.995C36.4437 116.276 36.4895 116.536 36.5811 116.777C36.6784 117.011 36.81 117.214 36.976 117.386C37.1477 117.558 37.348 117.689 37.5769 117.781C37.8058 117.873 38.0548 117.918 38.3238 117.918ZM42.6569 119V112.991H44.0476V119H42.6569ZM45.4737 119V112.991H46.624L50.1695 117.317H49.6115V112.991H50.985V119H49.8433L46.2892 114.673H46.8472V119H45.4737ZM54.838 119V112.991H56.2287V117.867H59.2419V119H54.838ZM60.019 119V112.991H61.4097V119H60.019ZM64.6134 119L62.0209 112.991H63.5232L65.7895 118.313H64.9053L67.206 112.991H68.5881L65.987 119H64.6134ZM70.369 115.412H73.262V116.493H70.369V115.412ZM70.472 117.884H73.7428V119H69.0899V112.991H73.6312V114.107H70.472V117.884ZM77.7252 119.103C77.2616 119.103 76.8295 119.029 76.4289 118.88C76.034 118.725 75.6906 118.508 75.3987 118.227C75.1068 117.947 74.8779 117.618 74.7119 117.24C74.5517 116.862 74.4716 116.447 74.4716 115.995C74.4716 115.543 74.5517 115.128 74.7119 114.751C74.8779 114.373 75.1068 114.044 75.3987 113.763C75.6963 113.483 76.0426 113.268 76.4375 113.12C76.8324 112.965 77.2645 112.888 77.7337 112.888C78.2545 112.888 78.7238 112.979 79.1416 113.162C79.5651 113.34 79.92 113.603 80.2061 113.952L79.3133 114.776C79.1073 114.542 78.8784 114.367 78.6265 114.253C78.3747 114.133 78.1 114.072 77.8024 114.072C77.522 114.072 77.2645 114.118 77.0298 114.21C76.7952 114.301 76.592 114.433 76.4203 114.605C76.2486 114.776 76.1141 114.98 76.0168 115.214C75.9252 115.449 75.8795 115.709 75.8795 115.995C75.8795 116.282 75.9252 116.542 76.0168 116.777C76.1141 117.011 76.2486 117.214 76.4203 117.386C76.592 117.558 76.7952 117.689 77.0298 117.781C77.2645 117.873 77.522 117.918 77.8024 117.918C78.1 117.918 78.3747 117.861 78.6265 117.747C78.8784 117.626 79.1073 117.446 79.3133 117.206L80.2061 118.03C79.92 118.379 79.5651 118.645 79.1416 118.828C78.7238 119.011 78.2517 119.103 77.7252 119.103ZM85.2659 112.991H86.6566V119H85.2659V112.991ZM82.536 119H81.1453V112.991H82.536V119ZM85.3689 116.536H82.433V115.36H85.3689V116.536ZM87.2886 119L89.967 112.991H91.3406L94.0275 119H92.5682L90.3705 113.695H90.9199L88.7136 119H87.2886ZM88.6278 117.712L88.9969 116.656H92.0874L92.4651 117.712H88.6278ZM95.594 119V114.124H93.671V112.991H98.9077V114.124H96.9847V119H95.594Z" fill="white"/>
</g>
<defs>
<clipPath id="clip0_1_47">
<path d="M0 0H128V126H0V0Z" fill="white"/>
</clipPath>
</defs>
</svg>
