<svg width="128" height="129" viewBox="0 0 128 129" fill="none" xmlns="http://www.w3.org/2000/svg">
<g clip-path="url(#clip0_0_48)">
<rect y="82" width="128" height="51" fill="#FF4C05"/>
<rect y="-1.52588e-05" width="128.193" height="107.896" rx="20" fill="#FF4C05"/>
<path d="M-4.57764e-05 9.08201C2.95458 9.06956 5.92053 9.06956 7.6752 11.2348C9.42986 13.4126 9.98456 17.7431 12.4524 19.0249C14.9203 20.2942 19.2899 18.5022 20.7276 19.9457C22.1766 21.3892 20.6824 26.0682 22.0634 28.7313C23.4332 31.3943 27.667 32.029 29.5689 34.02C31.4707 36.0111 31.0405 39.371 30.6104 42.7309H-4.57764e-05V9.08201Z" fill="#FF9000"/>
<path d="M128.024 35.7035C126.13 30.7648 124.223 25.8261 121.07 25.6984C117.917 25.5848 113.518 30.2681 110.482 30.5661C107.446 30.8641 105.785 26.7627 104.267 23.3142C102.736 19.8798 101.334 17.0841 101.62 14.0045C101.905 10.9249 103.878 7.57567 102.71 4.75153C101.542 1.9274 97.2342 -0.371642 92.9395 -2.67068H128.024V35.7035Z" fill="#FF9000"/>
<g clip-path="url(#clip1_0_48)">
<path d="M108.392 10.6512C106.554 9.74736 104.387 10.6761 103.573 12.7237C102.76 14.7672 103.6 17.1754 105.438 18.0792C107.275 18.983 109.443 18.0543 110.255 16.0108C111.069 13.964 110.229 11.5549 108.392 10.6512Z" fill="#FFE600"/>
<path d="M83.1229 26.9361C82.7009 26.9361 82.3043 26.6503 82.1452 26.186C81.6814 24.8286 80.6252 21.103 79.9777 18.3226C78.6288 18.3035 77.1865 18.1548 75.6568 17.8766C75.0869 17.7727 74.7 17.1754 74.7934 16.5416C74.8868 15.9078 75.423 15.4775 75.9937 15.5813C77.2313 15.8056 78.4122 15.9369 79.5221 15.9759C79.0739 12.6872 79.5833 9.76648 80.9748 7.81102C82.1243 6.19532 83.7727 5.34137 85.7423 5.34137H85.7632C87.8919 5.34802 89.6628 6.45284 90.5008 8.29864C91.3418 10.1503 91.1155 12.3624 89.8943 14.2157C88.8247 15.8397 87.0777 17.05 84.8437 17.7154C83.9975 17.9679 83.0878 18.1415 82.1198 18.2371C82.7427 20.8247 83.6786 24.1284 84.0991 25.3594C84.3045 25.96 84.0326 26.6312 83.4933 26.8597C83.3709 26.9112 83.2454 26.9361 83.1221 26.9361H83.1229ZM85.7423 7.66731C84.4158 7.66731 83.3634 8.20145 82.6135 9.25477C81.5417 10.7608 81.1966 13.1607 81.6336 15.936C84.7018 15.6943 87.0269 14.6327 88.2078 12.8409C88.954 11.7078 89.1138 10.402 88.6343 9.34781C88.151 8.28452 87.1024 7.67147 85.7572 7.66815H85.7423V7.66731Z" fill="white"/>
<path d="M84.9101 21.4518C85.1065 18.8892 86.9118 17.0193 89.1069 17.2278C89.9629 17.3092 90.7322 17.7129 91.329 18.3102C91.5075 17.8209 91.9556 17.4977 92.4538 17.5451C93.0611 17.6024 93.5025 18.1847 93.4509 18.8601L92.9341 25.6136C92.8825 26.289 92.359 26.7799 91.7517 26.7226C91.2536 26.6753 90.8607 26.2724 90.7591 25.7565C90.0787 26.2499 89.2608 26.4867 88.4041 26.4053C86.209 26.1976 84.7137 24.0154 84.9101 21.4527V21.4518ZM91.013 22.03C91.1154 20.6967 90.3356 19.6119 89.2459 19.508C88.1405 19.4034 87.2076 20.3263 87.1052 21.6595C87.0022 23.0102 87.7827 24.0785 88.8881 24.1832C89.9778 24.2862 90.91 23.3807 91.013 22.03Z" fill="white"/>
<path d="M101.725 18.5693C101.231 18.4829 100.764 18.7704 100.555 19.2439C99.9968 18.6009 99.2559 18.1374 98.4067 17.9887C97.7031 17.8657 97.0257 17.9629 96.4199 18.2362C95.1509 18.8086 94.1942 20.1526 93.9514 21.8722C93.5921 24.4124 94.944 26.7068 97.1205 27.0881C97.9391 27.231 98.7368 27.0707 99.424 26.6811C99.0782 27.6762 98.1789 28.3283 97.1758 28.1531C96.6052 28.0525 96.2556 27.7277 96.0271 27.442C95.7851 27.1355 95.5953 26.8032 95.1629 26.7276C94.5609 26.6229 94.0298 27.0225 93.935 27.692C93.9014 27.9321 93.9678 28.2428 94.1322 28.536C94.5579 29.331 95.5334 30.1525 96.8606 30.3843C99.2066 30.7947 101.343 29.11 101.702 26.5689L101.838 25.607L102.636 19.9599C102.731 19.2904 102.327 18.6748 101.725 18.5693ZM97.7449 24.91C96.6492 24.7181 95.9382 23.5917 96.1279 22.2526C96.2392 21.4627 96.6373 20.8421 97.1736 20.5115C97.5351 20.2889 97.9585 20.1975 98.4 20.2748C99.4494 20.4583 100.147 21.5657 100.014 22.8441L100.002 22.9297C99.9438 23.3425 99.8094 23.708 99.6189 24.0087C99.1947 24.6841 98.4918 25.0405 97.7449 24.91Z" fill="white"/>
<path d="M105.502 19.4025C104.81 19.238 104.129 19.7282 103.982 20.4982L102.909 26.088L102.678 27.2891C102.53 28.0592 102.972 28.816 103.663 28.9804C103.754 29.002 103.843 29.012 103.932 29.012C104.524 29.012 105.056 28.5535 105.184 27.8847L105.422 26.6445L106.487 21.093C106.635 20.3238 106.194 19.5662 105.502 19.4025Z" fill="white"/>
<path d="M92.7033 15.4908C92.5039 15.5224 92.3179 15.5049 92.1416 15.4376C91.9654 15.3703 91.8137 15.2607 91.6875 15.1062C91.5613 14.9517 91.4731 14.7565 91.4291 14.5189C91.3843 14.2788 91.3955 14.0587 91.4657 13.861C91.5359 13.6633 91.6531 13.4963 91.8167 13.365C91.9803 13.2338 92.176 13.1491 92.4015 13.1133C92.6025 13.0818 92.7847 13.1009 92.943 13.1682C93.1021 13.2354 93.2299 13.3534 93.3255 13.5204C93.4211 13.6873 93.4786 13.9083 93.5002 14.1816C93.5212 14.4524 93.5017 14.6792 93.4435 14.8636C93.3852 15.048 93.2941 15.1909 93.1686 15.2939C93.0439 15.3969 92.8893 15.4609 92.7025 15.4908H92.7033ZM92.7429 14.9251C92.846 14.9093 92.9356 14.8711 93.0148 14.808C93.0939 14.7448 93.1537 14.6634 93.1955 14.5604C93.2373 14.4582 93.2523 14.3411 93.2403 14.209C93.2276 14.0736 93.191 13.9615 93.1298 13.8734C93.0678 13.7845 92.9894 13.7206 92.8952 13.6807C92.8004 13.6408 92.6981 13.6292 92.5883 13.645C92.4755 13.6616 92.3784 13.704 92.2962 13.7704C92.2141 13.8369 92.1543 13.9224 92.1155 14.0254C92.0766 14.1293 92.0684 14.2481 92.0886 14.3818C92.108 14.5131 92.1513 14.621 92.2156 14.7074C92.2805 14.7938 92.3582 14.8553 92.4493 14.8927C92.5405 14.9301 92.6383 14.9409 92.7436 14.9251H92.7429ZM93.3621 15.3678C93.3449 15.1784 93.3359 15.0829 93.3187 14.8935C93.2986 14.6169 93.2889 14.479 93.2687 14.2024C93.2269 13.9299 93.206 13.7937 93.1634 13.522C93.1133 12.9821 93.0887 12.7121 93.0387 12.173C93.3277 12.1398 93.4719 12.1265 93.7609 12.1049C93.8244 13.174 93.8879 14.2439 93.9514 15.313C93.7153 15.3305 93.5973 15.3413 93.3621 15.3678Z" fill="white"/>
<path d="M95.5777 15.3147C95.3357 15.3064 95.1243 15.2532 94.9391 15.151C94.7539 15.0489 94.6067 14.911 94.4984 14.734C94.3901 14.5571 94.3289 14.3544 94.3207 14.1235C94.3117 13.89 94.3573 13.6799 94.4603 13.4955C94.5634 13.3111 94.7105 13.1649 94.901 13.0602C95.0915 12.9555 95.3111 12.9057 95.5545 12.9123C95.7891 12.919 95.9989 12.9779 96.1804 13.0868C96.3619 13.1956 96.4994 13.3468 96.5927 13.5362C96.6861 13.7256 96.7205 13.9465 96.6995 14.1966C96.6973 14.2223 96.6936 14.2522 96.6883 14.2846C96.6831 14.3179 96.6779 14.3478 96.6727 14.3768C95.9489 14.3046 95.5852 14.2888 94.8569 14.2979C94.8554 14.1401 94.8547 14.0612 94.8525 13.9033C95.4552 13.895 95.757 13.905 96.3575 13.9524C96.2529 13.9914 96.2006 14.0105 96.0975 14.0512C96.1035 13.9299 96.0848 13.8228 96.0408 13.7306C95.9967 13.6383 95.9325 13.5644 95.8473 13.5096C95.7629 13.4548 95.6621 13.4257 95.5463 13.4224C95.4306 13.419 95.3275 13.4423 95.2393 13.4921C95.1505 13.542 95.0825 13.6126 95.0339 13.704C94.9854 13.7954 94.9622 13.9033 94.963 14.0271C94.963 14.0686 94.963 14.0894 94.963 14.131C94.963 14.258 94.9914 14.3694 95.0452 14.4666C95.0989 14.5629 95.1736 14.6368 95.27 14.6892C95.3663 14.7407 95.4784 14.7689 95.6083 14.7731C95.7248 14.7772 95.8272 14.7631 95.9168 14.7307C96.0064 14.6983 96.0901 14.6468 96.1685 14.577C96.2955 14.7423 96.3582 14.8254 96.48 14.9932C96.3724 15.1054 96.2424 15.1876 96.0916 15.2424C95.9399 15.2972 95.7696 15.3205 95.5777 15.3139V15.3147Z" fill="white"/>
<path d="M96.9199 13.6151C96.9385 13.4082 96.9475 13.3044 96.9662 13.0976C97.6242 13.1707 97.9513 13.2238 98.6011 13.3601C98.5668 13.5644 98.5488 13.6666 98.5145 13.8709C97.8804 13.738 97.5607 13.6865 96.9191 13.6151H96.9199ZM97.8692 15.5656C97.6227 15.5199 97.4397 15.4202 97.3165 15.2607C97.1932 15.1012 97.1439 14.8852 97.1738 14.6094C97.2612 13.797 97.3053 13.3908 97.3926 12.5784C97.6742 12.6158 97.8154 12.6374 98.0955 12.6864C97.9819 13.4913 97.9252 13.8934 97.8117 14.6983C97.7982 14.7955 97.8117 14.8744 97.8527 14.9359C97.8931 14.9974 97.9551 15.0356 98.0372 15.0514C98.1358 15.0705 98.2239 15.0588 98.3031 15.0165C98.339 15.2183 98.3561 15.3188 98.3883 15.5199C98.3173 15.5539 98.2366 15.5747 98.1455 15.5805C98.0544 15.5872 97.9625 15.5805 97.8692 15.5639V15.5656Z" fill="white"/>
<path d="M99.565 13.2039C99.4388 13.1707 99.3439 13.1092 99.2782 13.0195C99.2124 12.9289 99.1893 12.8326 99.2095 12.7279C99.2296 12.6232 99.2871 12.5451 99.3827 12.4953C99.4783 12.4446 99.5919 12.4363 99.7226 12.4712C99.8525 12.5061 99.9519 12.5684 100.018 12.6573C100.083 12.7462 100.104 12.8425 100.08 12.9464C100.054 13.0552 99.993 13.1341 99.8988 13.1831C99.8047 13.2321 99.6942 13.2396 99.565 13.2047V13.2039ZM98.709 15.7109C98.8592 14.9517 99.0085 14.1924 99.1587 13.434C99.4298 13.5004 99.565 13.5362 99.8339 13.6134C99.6591 14.366 99.4843 15.1186 99.3103 15.8713C99.0705 15.8023 98.9503 15.7707 98.7098 15.7118L98.709 15.7109Z" fill="white"/>
<path d="M99.8643 16.0399C100.137 15.0115 100.409 13.9839 100.681 12.9555C100.959 13.0469 101.097 13.0951 101.373 13.1972C101.068 14.214 100.761 15.23 100.456 16.2467C100.221 16.1595 100.103 16.118 99.865 16.0399H99.8643ZM100.486 15.7558C100.585 15.4451 100.634 15.2898 100.733 14.9791C101.254 14.7349 101.523 14.6235 102.078 14.4233C102.388 14.5596 102.542 14.6319 102.847 14.783C102.296 14.9741 102.028 15.0813 101.509 15.3163C101.344 15.3687 101.262 15.3961 101.099 15.4526C100.849 15.5689 100.727 15.6295 100.486 15.755V15.7558ZM101.37 16.6197C101.231 16.1362 101.154 15.8945 100.983 15.4127C101.201 15.2756 101.311 15.2084 101.535 15.0779C101.784 15.8247 101.889 16.2002 102.065 16.9487C101.789 16.8099 101.65 16.7443 101.37 16.6197Z" fill="white"/>
</g>
<path d="M32.0716 121.102C31.6677 121.102 31.295 121.028 30.9537 120.881C30.6181 120.727 30.3421 120.511 30.126 120.232L30.894 119.31C31.0589 119.527 31.2325 119.692 31.4145 119.805C31.5965 119.913 31.7928 119.967 32.0033 119.967C32.5665 119.967 32.8481 119.638 32.8481 118.978V116.136H30.7489V115.027H34.222V118.901C34.222 119.64 34.0399 120.192 33.6758 120.556C33.3117 120.92 32.777 121.102 32.0716 121.102ZM38.4888 121.102C38.0166 121.102 37.5785 121.026 37.1746 120.872C36.7764 120.718 36.4294 120.502 36.1336 120.223C35.8434 119.945 35.6159 119.618 35.4509 119.242C35.2916 118.867 35.212 118.457 35.212 118.013C35.212 117.57 35.2916 117.16 35.4509 116.785C35.6159 116.409 35.8463 116.082 36.1421 115.803C36.4379 115.524 36.7849 115.308 37.1832 115.155C37.5814 115.001 38.0137 114.924 38.4802 114.924C38.9524 114.924 39.3848 115.001 39.7773 115.155C40.1755 115.308 40.5197 115.524 40.8098 115.803C41.1057 116.082 41.3361 116.409 41.501 116.785C41.666 117.154 41.7485 117.564 41.7485 118.013C41.7485 118.457 41.666 118.87 41.501 119.251C41.3361 119.626 41.1057 119.953 40.8098 120.232C40.5197 120.505 40.1755 120.718 39.7773 120.872C39.3848 121.026 38.9553 121.102 38.4888 121.102ZM38.4802 119.925C38.7476 119.925 38.9922 119.879 39.2141 119.788C39.4417 119.697 39.6408 119.566 39.8114 119.396C39.9821 119.225 40.1129 119.023 40.204 118.79C40.3007 118.557 40.349 118.298 40.349 118.013C40.349 117.729 40.3007 117.47 40.204 117.237C40.1129 117.004 39.9821 116.802 39.8114 116.631C39.6465 116.46 39.4502 116.329 39.2226 116.238C38.9951 116.147 38.7476 116.102 38.4802 116.102C38.2129 116.102 37.9654 116.147 37.7378 116.238C37.516 116.329 37.3197 116.46 37.149 116.631C36.9784 116.802 36.8447 117.004 36.748 117.237C36.6569 117.47 36.6114 117.729 36.6114 118.013C36.6114 118.292 36.6569 118.551 36.748 118.79C36.8447 119.023 36.9755 119.225 37.1405 119.396C37.3112 119.566 37.5103 119.697 37.7378 119.788C37.9654 119.879 38.2129 119.925 38.4802 119.925ZM42.7874 121V115.027H44.1698V121H42.7874ZM45.5874 121V115.027H46.7309L50.2552 119.327H49.7005V115.027H51.0658V121H49.9309L46.3981 116.699H46.9528V121H45.5874ZM54.8958 121V115.027H56.2782V119.874H59.2734V121H54.8958ZM60.0458 121V115.027H61.4282V121H60.0458ZM64.6128 121L62.0357 115.027H63.529L65.7818 120.317H64.9029L67.1898 115.027H68.5637L65.9781 121H64.6128ZM70.3339 117.433H73.2096V118.508H70.3339V117.433ZM70.4363 119.891H73.6875V121H69.0624V115.027H73.5766V116.136H70.4363V119.891ZM77.6461 121.102C77.1853 121.102 76.7558 121.028 76.3576 120.881C75.965 120.727 75.6237 120.511 75.3336 120.232C75.0434 119.953 74.8159 119.626 74.6509 119.251C74.4916 118.875 74.412 118.463 74.412 118.013C74.412 117.564 74.4916 117.151 74.6509 116.776C74.8159 116.401 75.0434 116.073 75.3336 115.795C75.6294 115.516 75.9736 115.303 76.3661 115.155C76.7586 115.001 77.1881 114.924 77.6546 114.924C78.1723 114.924 78.6388 115.015 79.0541 115.197C79.4751 115.374 79.8278 115.635 80.1122 115.982L79.2248 116.802C79.02 116.568 78.7924 116.395 78.5421 116.281C78.2918 116.162 78.0187 116.102 77.7229 116.102C77.4441 116.102 77.1881 116.147 76.9549 116.238C76.7217 116.329 76.5197 116.46 76.349 116.631C76.1784 116.802 76.0447 117.004 75.948 117.237C75.8569 117.47 75.8114 117.729 75.8114 118.013C75.8114 118.298 75.8569 118.557 75.948 118.79C76.0447 119.023 76.1784 119.225 76.349 119.396C76.5197 119.566 76.7217 119.697 76.9549 119.788C77.1881 119.879 77.4441 119.925 77.7229 119.925C78.0187 119.925 78.2918 119.868 78.5421 119.754C78.7924 119.635 79.02 119.455 79.2248 119.217L80.1122 120.036C79.8278 120.383 79.4751 120.647 79.0541 120.829C78.6388 121.011 78.1695 121.102 77.6461 121.102ZM85.1418 115.027H86.5242V121H85.1418V115.027ZM82.4282 121H81.0458V115.027H82.4282V121ZM85.2442 118.551H82.3258V117.382H85.2442V118.551ZM87.1524 121L89.8148 115.027H91.1801L93.851 121H92.4004L90.2158 115.726H90.762L88.5689 121H87.1524ZM88.4836 119.72L88.8505 118.67H91.9225L92.298 119.72H88.4836ZM95.4081 121V116.153H93.4966V115.027H98.702V116.153H96.7905V121H95.4081Z" fill="white"/>
</g>
<defs>
<clipPath id="clip0_0_48">
<rect width="128" height="129" rx="20" fill="white"/>
</clipPath>
<clipPath id="clip1_0_48">
<rect width="35.7871" height="25.1044" fill="white" transform="translate(74.7783 5.34137)"/>
</clipPath>
</defs>
</svg>
